# xmcd CD database file
#
# Track frame offsets:
#	150
#	27410
#	41500
#	60782
#	84097
#	104867
#	136820
#	159630
#	186217
#	217495
#	245085
#	271252
#
# Disc length: 4044 seconds
#
# Revision: 0
# Processed by: cddbd v1.5.1PL0 Copyright (c) Steve Scherf et al.
# Submitted via: CDex 1.51
#
DISCID=aa0fca0c
DTITLE=Jazzchor Ettlingen - live in Montreux
DYEAR=1998
DGENRE=Jazz
TTITLE0=Ouvertüre - We've Fot The Swing - Have A Good Time
TTITLE1=Send In The Clowns
TTITLE2=Night And Day
TTITLE3=One Note Samba
TTITLE4=Moon Dance
TTITLE5=I'm Beginning To See The Light
TTITLE6=The Girl From Ipanema
TTITLE7=Birdland
TTITLE8=Spain
TTITLE9=It Don't Mean A Thing
TTITLE10=Watermelon Man
TTITLE11=My Favourite Things
EXTD=YEAR: 1998
EXTT0=
EXTT1=
EXTT2=
EXTT3=
EXTT4=
EXTT5=
EXTT6=
EXTT7=
EXTT8=
EXTT9=
EXTT10=
EXTT11=
PLAYORDER=
